<svg xmlns="http://www.w3.org/2000/svg" width="1600" height="700" viewBox="0 0 1600 700" role="img" aria-labelledby="title desc">
  <title id="title">Sentinel AI Auto Triage Hardened Architecture</title>
  <desc id="desc">Architecture flow from Microsoft Sentinel through incident retrieval, redaction, LLM analysis, deterministic recommendation policy, human approval state, dry-run or controlled update, and metadata-only audit records.</desc>
  <rect width="1600" height="700" fill="#ffffff"/>
  <style>
    .box { fill:#f7f9fc; stroke:#1f2937; stroke-width:2; rx:18; }
    .control { fill:#eef6ff; stroke:#2563eb; stroke-width:2; rx:18; }
    .safe { fill:#ecfdf5; stroke:#059669; stroke-width:2; rx:18; }
    .warn { fill:#fff7ed; stroke:#ea580c; stroke-width:2; rx:18; }
    .approval { fill:#fef3c7; stroke:#d97706; stroke-width:2; rx:18; }
    .audit { fill:#f5f3ff; stroke:#7c3aed; stroke-width:2; rx:18; }
    .title { font: 700 28px Arial, sans-serif; fill:#111827; }
    .label { font: 700 18px Arial, sans-serif; fill:#111827; }
    .small { font: 15px Arial, sans-serif; fill:#374151; }
    .tiny { font: 14px Arial, sans-serif; fill:#4b5563; }
    .arrow { stroke:#374151; stroke-width:3; fill:none; marker-end:url(#arrow); }
    .dash { stroke:#7c3aed; stroke-width:2.5; fill:none; stroke-dasharray:7 5; marker-end:url(#arrowPurple); }
  </style>
  <defs>
    <marker id="arrow" markerWidth="10" markerHeight="10" refX="9" refY="3" orient="auto" markerUnits="strokeWidth">
      <path d="M0,0 L0,6 L9,3 z" fill="#374151" />
    </marker>
    <marker id="arrowPurple" markerWidth="10" markerHeight="10" refX="9" refY="3" orient="auto" markerUnits="strokeWidth">
      <path d="M0,0 L0,6 L9,3 z" fill="#7c3aed" />
    </marker>
  </defs>

  <text x="800" y="42" text-anchor="middle" class="title">Sentinel-AI-AutoTriage — Hardened, Dry-Run-First SOC Automation Flow</text>

  <rect x="40" y="145" width="185" height="115" class="box"/>
  <text x="132" y="182" text-anchor="middle" class="label">Microsoft</text>
  <text x="132" y="205" text-anchor="middle" class="label">Sentinel</text>
  <text x="132" y="231" text-anchor="middle" class="small">New / Active incidents</text>

  <rect x="265" y="145" width="185" height="115" class="box"/>
  <text x="357" y="182" text-anchor="middle" class="label">Incident</text>
  <text x="357" y="205" text-anchor="middle" class="label">Retrieval</text>
  <text x="357" y="231" text-anchor="middle" class="small">SDK wrapper + status normalisation</text>

  <rect x="490" y="145" width="190" height="115" class="control"/>
  <text x="585" y="182" text-anchor="middle" class="label">Compact</text>
  <text x="585" y="205" text-anchor="middle" class="label">Summary</text>
  <text x="585" y="231" text-anchor="middle" class="small">Minimised LLM context</text>

  <rect x="720" y="145" width="205" height="115" class="control"/>
  <text x="822" y="177" text-anchor="middle" class="label">Pre-LLM</text>
  <text x="822" y="200" text-anchor="middle" class="label">Redaction</text>
  <text x="822" y="226" text-anchor="middle" class="small">Secrets · emails · IPv4</text>
  <text x="822" y="247" text-anchor="middle" class="tiny">Count/types logged, raw values not logged</text>

  <rect x="965" y="145" width="190" height="115" class="box"/>
  <text x="1060" y="182" text-anchor="middle" class="label">LLM</text>
  <text x="1060" y="205" text-anchor="middle" class="label">Analysis</text>
  <text x="1060" y="231" text-anchor="middle" class="small">Strict JSON contract</text>

  <rect x="1195" y="145" width="235" height="115" class="control"/>
  <text x="1312" y="177" text-anchor="middle" class="label">Validated</text>
  <text x="1312" y="200" text-anchor="middle" class="label">Recommendation</text>
  <text x="1312" y="226" text-anchor="middle" class="small">Safe fallback on invalid output</text>

  <path d="M225 202 H265" class="arrow"/>
  <path d="M450 202 H490" class="arrow"/>
  <path d="M680 202 H720" class="arrow"/>
  <path d="M925 202 H965" class="arrow"/>
  <path d="M1155 202 H1195" class="arrow"/>

  <rect x="350" y="350" width="290" height="110" class="control"/>
  <text x="495" y="383" text-anchor="middle" class="label">Deterministic</text>
  <text x="495" y="406" text-anchor="middle" class="label">Recommendation Policy</text>
  <text x="495" y="432" text-anchor="middle" class="small">Blocks weak closure recommendations</text>

  <rect x="690" y="350" width="250" height="110" class="approval"/>
  <text x="815" y="383" text-anchor="middle" class="label">Human</text>
  <text x="815" y="406" text-anchor="middle" class="label">Approval State</text>
  <text x="815" y="432" text-anchor="middle" class="small">Closure paths default to pending</text>

  <rect x="1000" y="330" width="240" height="85" class="safe"/>
  <text x="1120" y="365" text-anchor="middle" class="label">Dry-run</text>
  <text x="1120" y="390" text-anchor="middle" class="small">Default operating mode</text>

  <rect x="1000" y="440" width="240" height="85" class="warn"/>
  <text x="1120" y="475" text-anchor="middle" class="label">Controlled Update</text>
  <text x="1120" y="500" text-anchor="middle" class="small">Only after explicit gates pass</text>

  <rect x="1300" y="385" width="260" height="115" class="audit"/>
  <text x="1430" y="418" text-anchor="middle" class="label">Metadata-only</text>
  <text x="1430" y="441" text-anchor="middle" class="label">JSONL Audit Trail</text>
  <text x="1430" y="467" text-anchor="middle" class="small">Decision metadata, not raw prompt text</text>

  <path d="M1312 260 C1312 305, 640 305, 640 350" class="arrow"/>
  <path d="M640 405 H690" class="arrow"/>
  <path d="M940 405 H1000" class="arrow"/>
  <path d="M940 425 C965 425, 970 482, 1000 482" class="arrow"/>

  <path d="M1240 372 H1300" class="dash"/>
  <path d="M1240 482 H1300" class="dash"/>
  <path d="M940 405 C1100 405, 1100 430, 1300 430" class="dash"/>

  <rect x="235" y="580" width="1130" height="60" class="safe"/>
  <text x="800" y="604" text-anchor="middle" class="label">Core safety posture</text>
  <text x="800" y="627" text-anchor="middle" class="small">Dry-run by default · redaction before LLM · deterministic policy · explicit approval for closure · non-blocking metadata-only audit trail</text>
</svg>
